<?xml version="1.0" encoding="UTF-8"?>
<svg id="Layer_1" xmlns="http://www.w3.org/2000/svg" version="1.1" viewBox="0 0 40 40">
  <!-- Generator: Adobe Illustrator 29.5.1, SVG Export Plug-In . SVG Version: 2.1.0 Build 141)  -->
  <defs>
    <style>
      .st0 {
        fill: none;
      }

      .st1 {
        fill: #194049;
      }

      .st2 {
        fill: #128d7b;
      }

      .st3 {
        fill: #dee6e6;
      }
    </style>
  </defs>
  <path class="st2" d="M28.9,26.7l-1.9,2.2c-.1.1-.2.3-.2.5v3.6c0,.2-.1.3-.3.3h-4.1c-.2,0-.3,0-.3-.3V15.7c0-.2.1-.3.3-.3h4.1c.2,0,.3.1.3.3v7.1c0,.3.4.4.5.2l6.1-7.5c0-.1.2-.1.3-.1h4.7c.2,0,.4.3.2.4l-6.2,7.5c0,.1,0,.2,0,.3l6.2,9.1c0,.2,0,.5-.2.5h-4.4c0,0-.2,0-.2,0l-4.4-6.5c-.1,0-.4-.1-.5,0Z"/>
  <g>
    <path class="st0" d="M3.8,4.1c0,.3-.1.5,0,.7" vector-effect="non-scaling-stroke"/>
    <path class="st0" d="M3.8,4.8c0,1.4.6,2.5,1.7,3.2.2.2.4.3.6.4,0,0,0,0,0,0-.9,1-1.6,2.2-1.7,3.6,0,1.2.2,2.4.7,3.4,0,0,0,.2,0,.3l-.9,2.5" vector-effect="non-scaling-stroke"/>
    <path class="st0" d="M4.2,18.3c-.2.3-.3.5-.5.8-1.1,1.6-1.6,3.5-1.5,5.4,0,2.4,1,4.9,2.7,6.6,1.3,1.4,2.9,2.4,4.8,2.9,0,0,0,0,0,0" vector-effect="non-scaling-stroke"/>
    <path class="st0" d="M21,19.8c.6-1.3.7-2.7.3-4.1,0-.1,0-.3,0-.4.2-.6.4-1.2.5-1.7.4-2,0-3.7-1.5-5.1,0,0,0,0,0,0,.7-.4,1.2-1,1.6-1.6.4-.6.6-1.2.6-2" vector-effect="non-scaling-stroke"/>
    <path class="st0" d="M22.6,4.9c0-.2,0-.4,0-.7,0,0,0,0,0,0-.5.7-1.1,1.2-1.9,1.5-.8.3-1.6.5-2.5.7-.2,0-.5.1-1,.3" vector-effect="non-scaling-stroke"/>
    <path class="st0" d="M17.1,6.6l-.9-.4" vector-effect="non-scaling-stroke"/>
    <path class="st0" d="M16.2,6.3c-2-.6-4-.6-6,0" vector-effect="non-scaling-stroke"/>
    <path class="st0" d="M10.3,6.3l-.9.3" vector-effect="non-scaling-stroke"/>
    <path class="st0" d="M9.4,6.6c-.9-.2-1.9-.4-2.9-.7-.7-.2-1.2-.4-1.7-.8s-.6-.6-.9-1" vector-effect="non-scaling-stroke"/>
    <path class="st0" d="M9.4,6.6" vector-effect="non-scaling-stroke"/>
    <path class="st0" d="M16.2,6.3" vector-effect="non-scaling-stroke"/>
    <path class="st0" d="M13.3,10.8v.4c0,0-.1,0-.1,0,0-.4-.2-.7-.3-1-.5-1.3-1.5-2.3-2.9-2.6-.8-.2-1.6-.3-2.5-.4-.5,0-.9-.1-1.3-.3-1.1-.3-1.9-1-2.5-2.2" vector-effect="non-scaling-stroke"/>
    <path class="st0" d="M22.6,4.9c-.5,1-1.2,1.6-2.2,2-.5.2-1,.3-1.5.4-.8,0-1.6.2-2.2.4-.5.1-1,.3-1.4.6-.2,0-.4.3-.6.4" vector-effect="non-scaling-stroke"/>
    <path class="st0" d="M13.3,10.8c.2-.4.4-.8.6-1.2.2-.4.5-.7.8-1" vector-effect="non-scaling-stroke"/>
    <path class="st0" d="M14.1,14.6c.2-.5.2-.9,0-1.3-.3-.9-1.4-1.2-1.9-.3-.2.5-.3.9,0,1.5" vector-effect="non-scaling-stroke"/>
    <path class="st0" d="M4.2,18.3" vector-effect="non-scaling-stroke"/>
    <path class="st0" d="M5.7,16.8c-.2.1-.4.4-.8.7" vector-effect="non-scaling-stroke"/>
    <path class="st0" d="M12.1,11.6c0-1.7-1.4-3-3-3s-3,1.4-3,3,1.4,3,3,3,3-1.4,3-3" vector-effect="non-scaling-stroke"/>
    <path class="st0" d="M20.2,10.9c-.4-1.6-2.1-2.6-3.7-2.1-1.6.4-2.6,2.1-2.2,3.7.4,1.6,2.1,2.6,3.7,2.1,1.6-.4,2.6-2.1,2.2-3.7" vector-effect="non-scaling-stroke"/>
    <path class="st0" d="M10.8,11.6c0-.9-.8-1.7-1.7-1.7s-1.7.8-1.7,1.7.8,1.7,1.7,1.7,1.7-.8,1.7-1.7" vector-effect="non-scaling-stroke"/>
    <path class="st0" d="M19,11.6c0-.9-.8-1.7-1.7-1.7s-1.7.8-1.7,1.7.8,1.7,1.7,1.7c.9,0,1.7-.8,1.7-1.7" vector-effect="non-scaling-stroke"/>
    <path class="st0" d="M9.4,10.6c-.2.2-.2.6,0,.8.2.2.6.3.8,0,.2-.2.2-.6,0-.8-.2-.2-.6-.3-.8,0" vector-effect="non-scaling-stroke"/>
    <path class="st0" d="M17.4,10.8c-.2.3,0,.6.2.8.3.2.6,0,.8-.2s0-.6-.2-.8c-.3-.2-.6,0-.8.2" vector-effect="non-scaling-stroke"/>
    <path class="st0" d="M14.1,14.6c-.3.6-.6,1.1-.9,1.6,0,0,0,0-.1,0l-.8-1.8" vector-effect="non-scaling-stroke"/>
    <path class="st0" d="M15.3,33.8h-.4" vector-effect="non-scaling-stroke"/>
    <path class="st2" d="M21,19.8c.6-1.3.7-2.7.3-4,0-.1,0-.3,0-.4.2-.6.4-1.2.5-1.7.4-2,0-3.7-1.5-5.1,0,0,0,0,0,0,.7-.4,1.2-1,1.6-1.6.4-.6.6-1.2.6-2-.5,1-1.2,1.6-2.2,2-.5.2-1,.3-1.5.4-.8,0-1.6.2-2.2.4-.5.1-1,.3-1.4.6-.2,0-.4.2-.6.4h0c-.3.4-.5.7-.7,1.1-.2.4-.4.7-.5,1.2v.4c-.1,0-.2,0-.2,0,0-.4-.2-.7-.3-1-.4-1.3-1.5-2.3-2.9-2.6-.8-.2-1.6-.3-2.5-.4-.5,0-.9-.1-1.3-.3-1.1-.3-1.9-1-2.5-2.2,0,1.4.6,2.5,1.7,3.2.2.2.4.3.6.4,0,0,0,0,0,0-.9,1-1.6,2.2-1.7,3.6,0,1.2.2,2.4.7,3.4,0,0,0,.2,0,.3,0,0-1,1.4-1.5,3.6,0,0,.8-1.2.8-1.2-1,1.4-2,3.2-2.2,5.9,0,0,0,3.1.4,5.5s.8,4.4,1.5,6.1c0,.3.1.3.2.2,1.6-1.3,2.4-1.8,4.2-3.3s4-1.3,5.9-2.4c1.6-1,2.7-2.5,3.9-3.7M16.5,8.7c1.6-.4,3.3.5,3.7,2.1s-.6,3.3-2.2,3.7c-1.6.4-3.3-.5-3.7-2.1-.4-1.6.6-3.2,2.2-3.7ZM9.1,8.6c1.7,0,3,1.4,3,3s-1.4,3-3,3-3-1.4-3-3c0-1.7,1.4-3,3-3ZM11.9,30.3c-3.2,0-6.2-2.4-6-6.2.2-3.8,2.9-5.8,6.1-5.8,2.9,0,5.7,2.2,5.8,5.8,0,3.8-2.8,6.1-5.9,6.2Z"/>
    <path class="st3" d="M16.2,6.4c-2-.6-4-.6-6,0l-.9.3c-.9-.2-1.9-.4-2.9-.7-.7-.2-1.2-.4-1.7-.8s-.6-.6-.9-1.1h0c0,.3-.1.5,0,.8.6,1.1,1.4,1.9,2.5,2.2.4.1.8.2,1.3.3.8.1,1.7.2,2.5.4,1.2.3,2.4,1.3,2.8,2.5l.4,1.1s0,.1,0,.1,0,0,0,0h0c.2-.6.5-1.3.7-1.6.3-.4.4-.6.7-1,.2-.2.5-.4.7-.5.5-.3.9-.5,1.4-.6.6-.2,1.4-.3,2.2-.4.5,0,1-.2,1.5-.4,1-.4,1.7-1.1,2.2-2.1,0-.2,0-.4,0-.7,0,0,0,0,0,0-.5.7-1.1,1.2-1.9,1.5-.8.3-1.6.5-2.5.7-.2,0-.5.1-1,.3h0l-.8-.3s0,0,0,0"/>
    <path class="st3" d="M12.1,11.6c0,1.7-1.4,3-3,3s-3-1.4-3-3,1.4-3,3-3,3,1.4,3,3ZM10.8,11.6c0-.9-.8-1.7-1.7-1.7s-1.7.8-1.7,1.7.8,1.7,1.7,1.7,1.7-.8,1.7-1.7Z"/>
    <path class="st3" d="M20.2,10.9c.4,1.6-.6,3.3-2.2,3.7-1.6.4-3.3-.5-3.7-2.1-.4-1.6.6-3.3,2.2-3.7,1.6-.4,3.3.5,3.7,2.1ZM19,11.6c0-.9-.8-1.7-1.7-1.7s-1.7.8-1.7,1.7.8,1.7,1.7,1.7c.9,0,1.7-.8,1.7-1.7Z"/>
    <path class="st1" d="M10.8,11.6c0,.9-.8,1.7-1.7,1.7s-1.7-.8-1.7-1.7.8-1.7,1.7-1.7,1.7.8,1.7,1.7ZM9.4,10.6c-.2.2-.2.6,0,.8.2.2.6.3.8,0,.2-.2.2-.6,0-.8-.2-.2-.6-.3-.8,0Z"/>
    <path class="st1" d="M19,11.6c0,.9-.8,1.7-1.7,1.7s-1.7-.8-1.7-1.7.8-1.7,1.7-1.7,1.7.7,1.7,1.7ZM17.4,10.8c-.2.3,0,.6.2.8.3.2.6,0,.8-.2s0-.6-.2-.8c-.3-.2-.6,0-.8.2Z"/>
    <path class="st3" d="M9.4,10.6c.2-.2.6-.2.8,0s.2.6,0,.8-.6.2-.8,0c-.2-.2-.2-.6,0-.8Z"/>
    <path class="st3" d="M17.4,10.8c.2-.3.5-.3.8-.2s.4.5.2.8-.5.3-.8.2c-.3-.2-.4-.5-.2-.8Z"/>
    <path class="st3" d="M11.9,14.6c-5.4,0-9.8,4.4-9.8,9.7s4.4,9.8,9.8,9.8,9.7-4.4,9.7-9.8-4.4-9.7-9.7-9.7ZM11.9,29.8c-3,0-5.5-2.4-5.5-5.5s2.4-5.5,5.5-5.5,5.5,2.4,5.5,5.5-2.5,5.5-5.5,5.5Z"/>
    <path class="st1" d="M14.1,14.6c-.3.6-.6,1.1-.9,1.6,0,0,0,0-.1,0l-.8-1.8c-.2-.5-.1-1,0-1.5.5-1,1.6-.6,1.9.3.1.4,0,.9,0,1.4Z"/>
  </g>
</svg>