<?xml version="1.0" encoding="UTF-8"?>
<svg id="Layer_1" xmlns="http://www.w3.org/2000/svg" version="1.1" viewBox="0 0 40 40">
  <!-- Generator: Adobe Illustrator 29.5.1, SVG Export Plug-In . SVG Version: 2.1.0 Build 141)  -->
  <defs>
    <style>
      .st0 {
        fill: none;
      }

      .st1 {
        fill: #194049;
      }

      .st2 {
        fill: #128d7b;
      }

      .st3 {
        fill: #dee6e6;
      }
    </style>
  </defs>
  <path class="st3" d="M25.3,19.8h3.1c.2,0,.3,0,.4.2l3.3,5.1c.1.2.4.1.4-.1v-4.7c0-.2.2-.4.4-.4h2.8c.2,0,.4.2.4.4v12c0,.2-.2.4-.4.4h-2.8c-.2,0-.3,0-.4-.2l-3.6-5.7c-.1-.2-.4-.1-.4.1v5.3c0,.2-.2.4-.4.4h-2.8c-.2,0-.4-.2-.4-.4v-12c0-.3.2-.5.4-.5Z"/>
  <path class="st0" d="M5.6,3.9c-.1.3-.1.5,0,.7" vector-effect="non-scaling-stroke"/>
  <path class="st0" d="M5.5,4.7c0,1.4.6,2.5,1.7,3.3.2.2.4.3.6.4,0,0,0,0,0,0-.9,1-1.6,2.2-1.7,3.6,0,1.2.2,2.4.7,3.5,0,.1,0,.2,0,.3l-.9,2.5" vector-effect="non-scaling-stroke"/>
  <path class="st0" d="M5.9,18.2c-.2.3-.3.5-.5.8-1.1,1.6-1.6,3.5-1.5,5.5,0,2.4,1,4.9,2.7,6.7,1.3,1.4,2.9,2.4,4.9,2.9,0,0,0,0,.1,0" vector-effect="non-scaling-stroke"/>
  <path class="st0" d="M22.9,19.8c.6-1.3.7-2.7.3-4.1,0-.1,0-.3,0-.4.2-.6.4-1.2.5-1.7.4-2-.1-3.7-1.5-5.2,0,0,0,0,0,0,.7-.4,1.2-1,1.6-1.6.4-.6.6-1.2.6-2" vector-effect="non-scaling-stroke"/>
  <path class="st0" d="M24.5,4.7c0-.2,0-.4,0-.7,0,0,0,0-.1,0-.5.7-1.1,1.2-1.9,1.5-.8.3-1.6.5-2.5.7-.2,0-.5.1-1,.3" vector-effect="non-scaling-stroke"/>
  <path class="st0" d="M19,6.5l-.9-.4" vector-effect="non-scaling-stroke"/>
  <path class="st0" d="M18.1,6.1c-2-.6-4-.6-6,0" vector-effect="non-scaling-stroke"/>
  <path class="st0" d="M12,6.1l-.9.3" vector-effect="non-scaling-stroke"/>
  <path class="st0" d="M11.2,6.5c-.9-.2-1.9-.4-3-.7-.7-.2-1.2-.4-1.7-.8s-.6-.6-.9-1" vector-effect="non-scaling-stroke"/>
  <path class="st0" d="M11.2,6.5" vector-effect="non-scaling-stroke"/>
  <path class="st0" d="M18.1,6.1" vector-effect="non-scaling-stroke"/>
  <path class="st0" d="M15.1,10.8v.4c0,0-.1,0-.1,0-.1-.4-.2-.7-.3-1-.5-1.3-1.5-2.3-2.9-2.7-.8-.2-1.6-.3-2.5-.4-.5,0-.9-.1-1.3-.3-1.1-.3-1.9-1-2.5-2.2" vector-effect="non-scaling-stroke"/>
  <path class="st0" d="M24.5,4.7c-.5,1-1.2,1.6-2.2,2-.5.2-1,.3-1.5.4-.8,0-1.6.2-2.2.4-.5.1-1,.3-1.4.6-.2.1-.4.3-.6.4" vector-effect="non-scaling-stroke"/>
  <path class="st0" d="M15.1,10.8c.2-.4.4-.8.6-1.2.2-.4.5-.7.8-1" vector-effect="non-scaling-stroke"/>
  <path class="st0" d="M15.9,14.5c.2-.5.2-.9,0-1.3-.3-.9-1.4-1.2-1.9-.3-.2.5-.3.9-.1,1.5" vector-effect="non-scaling-stroke"/>
  <path class="st0" d="M5.9,18.2" vector-effect="non-scaling-stroke"/>
  <path class="st0" d="M7.4,16.8c-.2.1-.4.4-.8.7" vector-effect="non-scaling-stroke"/>
  <path class="st0" d="M14,11.6c0-1.7-1.4-3.1-3.1-3.1s-3.1,1.4-3.1,3.1,1.4,3.1,3.1,3.1,3.1-1.4,3.1-3.1" vector-effect="non-scaling-stroke"/>
  <path class="st0" d="M22.1,10.8c-.4-1.6-2.1-2.6-3.7-2.1-1.6.4-2.7,2.1-2.2,3.7.4,1.6,2.1,2.6,3.7,2.1,1.6-.4,2.7-2.1,2.2-3.7" vector-effect="non-scaling-stroke"/>
  <path class="st0" d="M12.6,11.6c0-.9-.8-1.7-1.7-1.7s-1.7.8-1.7,1.7.8,1.7,1.7,1.7,1.7-.8,1.7-1.7" vector-effect="non-scaling-stroke"/>
  <path class="st0" d="M20.8,11.6c0-.9-.8-1.7-1.7-1.7s-1.7.8-1.7,1.7.8,1.7,1.7,1.7c.9,0,1.7-.8,1.7-1.7" vector-effect="non-scaling-stroke"/>
  <path class="st0" d="M11.2,10.6c-.2.2-.2.6,0,.8.2.2.6.3.8,0,.2-.2.2-.6,0-.8-.2-.2-.6-.3-.8,0" vector-effect="non-scaling-stroke"/>
  <path class="st0" d="M19.3,10.7c-.2.3,0,.6.2.8.3.2.6.1.8-.2s0-.6-.2-.8c-.3-.2-.6-.1-.8.2" vector-effect="non-scaling-stroke"/>
  <path class="st0" d="M15.9,14.5c-.3.6-.6,1.1-.9,1.6,0,0-.1,0-.1,0l-.8-1.8" vector-effect="non-scaling-stroke"/>
  <path class="st0" d="M17.1,33.9h-.4" vector-effect="non-scaling-stroke"/>
  <path class="st2" d="M22.9,19.8c.6-1.3.7-2.7.3-4.1,0-.1,0-.3,0-.4.2-.6.4-1.2.5-1.7.4-2-.1-3.7-1.5-5.2,0,0,0,0,0,0,.7-.4,1.2-1,1.6-1.6.4-.6.6-1.2.6-2-.5,1-1.2,1.6-2.2,2-.5.2-1,.3-1.5.4-.8,0-1.6.2-2.2.4-.5.1-1,.3-1.4.6-.2.1-.4.2-.6.4h0c-.3.4-.5.7-.7,1.1-.2.4-.4.7-.5,1.2v.4c-.1,0-.2,0-.2,0-.1-.4-.2-.7-.3-1-.4-1.3-1.5-2.3-2.9-2.7-.8-.2-1.6-.3-2.5-.4-.5,0-.9-.1-1.3-.3-1.1-.3-1.9-1-2.5-2.2,0,1.4.6,2.5,1.7,3.3.2.2.4.3.6.4,0,0,0,0,0,0-.9,1-1.6,2.2-1.7,3.6,0,1.2.2,2.4.7,3.5,0,.1,0,.2,0,.3,0,0-1,1.4-1.5,3.7,0,0,.8-1.2.8-1.2-1,1.4-2,3.3-2.2,6,0,0-.1,3.1.4,5.6s.8,4.4,1.5,6.2c.1.3.1.3.2.2,1.6-1.3,2.4-1.8,4.3-3.3s4-1.3,5.9-2.4c1.6-1,2.7-2.5,4-3.8M18.4,8.6c1.6-.4,3.3.5,3.7,2.1s-.6,3.3-2.2,3.7c-1.6.4-3.3-.5-3.7-2.1-.4-1.6.6-3.3,2.2-3.7ZM10.9,8.5c1.7,0,3.1,1.4,3.1,3.1s-1.4,3.1-3.1,3.1-3.1-1.4-3.1-3.1c0-1.7,1.4-3.1,3.1-3.1ZM13.7,30.4c-3.2,0-6.2-2.4-6-6.2.2-3.8,2.9-5.8,6.2-5.8,2.9,0,5.7,2.2,5.8,5.8.1,3.9-2.8,6.2-6,6.2Z"/>
  <path class="st3" d="M18.1,6.1c-2-.6-4-.6-6,0l-.9.3c-.9-.2-1.9-.4-3-.7-.7-.2-1.2-.4-1.7-.8s-.6-.6-.9-1h0c-.1.3-.1.5,0,.7.6,1.1,1.4,1.8,2.5,2.2.4.1.8.2,1.3.3.8.1,1.7.2,2.5.4,1.2.3,2.4,1.2,2.8,2.4l.4,1.1s0,.1,0,.1,0,0,0,0h0c.2-.6.5-1.2.7-1.6.3-.4.4-.6.7-1,.2-.2.5-.4.7-.5.5-.3.9-.5,1.4-.6.6-.2,1.4-.3,2.2-.4.5,0,1-.2,1.5-.4,1-.4,1.7-1,2.2-2,0-.2,0-.4,0-.7,0,0,0,0-.1,0-.5.7-1.1,1.2-1.9,1.5-.8.3-1.6.5-2.5.7-.2,0-.5.1-1,.3h0l-.8-.3s0,0,0,0"/>
  <path class="st3" d="M14,11.6c0,1.7-1.4,3.1-3.1,3.1s-3.1-1.4-3.1-3.1,1.4-3.1,3.1-3.1,3.1,1.4,3.1,3.1ZM12.6,11.6c0-.9-.8-1.7-1.7-1.7s-1.7.8-1.7,1.7.8,1.7,1.7,1.7,1.7-.8,1.7-1.7Z"/>
  <path class="st3" d="M22.1,10.8c.4,1.6-.6,3.3-2.2,3.7-1.6.4-3.3-.5-3.7-2.1-.4-1.6.6-3.3,2.2-3.7,1.6-.4,3.3.5,3.7,2.1ZM20.8,11.6c0-.9-.8-1.7-1.7-1.7s-1.7.8-1.7,1.7.8,1.7,1.7,1.7c.9,0,1.7-.8,1.7-1.7Z"/>
  <path class="st1" d="M12.6,11.6c0,.9-.8,1.7-1.7,1.7s-1.7-.8-1.7-1.7.8-1.7,1.7-1.7,1.7.8,1.7,1.7ZM11.2,10.6c-.2.2-.2.6,0,.8.2.2.6.3.8,0,.2-.2.2-.6,0-.8-.2-.2-.6-.3-.8,0Z"/>
  <path class="st1" d="M20.8,11.6c0,.9-.8,1.7-1.7,1.7s-1.7-.8-1.7-1.7.8-1.7,1.7-1.7,1.7.7,1.7,1.7ZM19.3,10.7c-.2.3,0,.6.2.8.3.2.6.1.8-.2s0-.6-.2-.8c-.3-.2-.6-.1-.8.2Z"/>
  <path class="st3" d="M11.2,10.6c.2-.2.6-.2.8,0s.2.6,0,.8-.6.2-.8,0c-.2-.2-.2-.6,0-.8Z"/>
  <path class="st3" d="M19.3,10.7c.2-.3.5-.3.8-.2s.4.5.2.8-.5.3-.8.2c-.3-.2-.4-.5-.2-.8Z"/>
  <path class="st3" d="M13.7,14.6c-5.4,0-9.9,4.4-9.9,9.8s4.4,9.9,9.9,9.9,9.8-4.4,9.8-9.9-4.4-9.8-9.8-9.8ZM13.7,29.9c-3,0-5.5-2.4-5.5-5.5s2.4-5.5,5.5-5.5,5.5,2.4,5.5,5.5-2.5,5.5-5.5,5.5Z"/>
  <path class="st1" d="M15.9,14.5c-.3.6-.6,1.1-.9,1.6,0,0-.1,0-.1,0l-.8-1.8c-.2-.5-.1-1,.1-1.5.5-1,1.6-.6,1.9.3.1.4.1.9-.1,1.4Z"/>
</svg>