<?xml version="1.0" encoding="utf-8"?>
<!-- Generator: Adobe Illustrator 29.5.1, SVG Export Plug-In . SVG Version: 9.03 Build 0)  -->
<svg version="1.1" id="Layer_1" xmlns="http://www.w3.org/2000/svg" xmlns:xlink="http://www.w3.org/1999/xlink" x="0px" y="0px"
	 viewBox="0 0 40 40" style="enable-background:new 0 0 40 40;" xml:space="preserve">
<style type="text/css">
	.st0{fill:#163547;}
	.st1{fill:none;}
	.st2{fill:#128D7B;}
	.st3{fill:#DEE6E6;}
	.st4{fill:#194049;}
</style>
<g>
	<g>
		<g>
			<path class="st0" d="M28.9,26.7L27,28.9c-0.1,0.1-0.2,0.3-0.2,0.5V33c0,0.2-0.1,0.3-0.3,0.3h-4.1c-0.2,0-0.3-0.1-0.3-0.3l0-17.3
				c0-0.2,0.1-0.3,0.3-0.3h4.1c0.2,0,0.3,0.1,0.3,0.3l0,7.1c0,0.3,0.4,0.4,0.5,0.2l6.1-7.5c0.1-0.1,0.2-0.1,0.3-0.1h4.7
				c0.2,0,0.4,0.3,0.2,0.4l-6.2,7.5c-0.1,0.1-0.1,0.2,0,0.3l6.2,9.1c0.1,0.2,0,0.5-0.2,0.5H34c-0.1,0-0.2,0-0.2-0.1l-4.4-6.5
				C29.3,26.6,29,26.5,28.9,26.7z"/>
		</g>
	</g>
	<g>
		<g>
			<path vector-effect="non-scaling-stroke" class="st1" d="M3.6,4.8C3.5,5.1,3.5,5.3,3.5,5.5"/>
			<path vector-effect="non-scaling-stroke" class="st1" d="M3.5,5.5c0.1,1.3,0.6,2.4,1.6,3.1C5.4,8.8,5.6,8.9,5.7,9c0,0,0,0,0,0.1
				c-0.9,0.9-1.6,2.1-1.6,3.4c-0.1,1.2,0.2,2.3,0.7,3.3c0,0.1,0,0.2,0,0.3l-0.9,2.4"/>
			<path vector-effect="non-scaling-stroke" class="st1" d="M3.9,18.5c-0.2,0.2-0.3,0.5-0.5,0.8c-1,1.6-1.5,3.4-1.5,5.2
				c0,2.3,1,4.7,2.6,6.4c1.3,1.4,2.8,2.3,4.7,2.8c0,0,0.1,0,0.1,0.1"/>
			<path vector-effect="non-scaling-stroke" class="st1" d="M20.2,20c0.5-1.3,0.7-2.6,0.3-3.9c0-0.1,0-0.3,0-0.4
				c0.2-0.6,0.4-1.2,0.5-1.7c0.4-1.9-0.1-3.5-1.5-5c0,0,0,0,0-0.1c0.6-0.4,1.1-0.9,1.6-1.6c0.4-0.6,0.5-1.2,0.5-1.9"/>
			<path vector-effect="non-scaling-stroke" class="st1" d="M21.7,5.5c0.1-0.2,0.1-0.4,0-0.6c0,0-0.1-0.1-0.1,0
				c-0.5,0.7-1.1,1.2-1.9,1.5C19,6.6,18.2,6.8,17.4,7c-0.2,0-0.5,0.1-1,0.3"/>
			<path vector-effect="non-scaling-stroke" class="st1" d="M16.4,7.2l-0.9-0.3"/>
			<path vector-effect="non-scaling-stroke" class="st1" d="M15.5,6.9c-1.9-0.6-3.8-0.6-5.8,0"/>
			<path vector-effect="non-scaling-stroke" class="st1" d="M9.8,6.9L8.9,7.2"/>
			<path vector-effect="non-scaling-stroke" class="st1" d="M8.9,7.2C8,7,7.1,6.8,6.1,6.6C5.5,6.4,4.9,6.2,4.5,5.8
				c-0.3-0.3-0.6-0.6-0.8-1"/>
			<path vector-effect="non-scaling-stroke" class="st1" d="M8.9,7.2"/>
			<path vector-effect="non-scaling-stroke" class="st1" d="M15.5,6.9"/>
			<path vector-effect="non-scaling-stroke" class="st1" d="M12.7,11.3l-0.1,0.4c0,0-0.1,0-0.1,0c-0.1-0.3-0.2-0.7-0.3-0.9
				c-0.5-1.2-1.5-2.2-2.8-2.5C8.8,8,8,7.9,7.2,7.8C6.7,7.8,6.3,7.7,5.9,7.6c-1.1-0.3-1.9-1-2.4-2.1"/>
			<path vector-effect="non-scaling-stroke" class="st1" d="M21.7,5.5c-0.5,0.9-1.2,1.6-2.1,1.9c-0.5,0.2-1,0.3-1.5,0.4
				C17.3,7.9,16.6,8,16,8.2c-0.5,0.1-0.9,0.3-1.4,0.6c-0.2,0.1-0.4,0.3-0.5,0.4"/>
			<path vector-effect="non-scaling-stroke" class="st1" d="M12.7,11.3c0.2-0.4,0.4-0.8,0.6-1.1c0.2-0.4,0.5-0.7,0.8-1"/>
			<path vector-effect="non-scaling-stroke" class="st1" d="M13.5,14.9c0.2-0.5,0.2-0.9,0.1-1.3c-0.3-0.9-1.3-1.2-1.8-0.2
				c-0.2,0.4-0.3,0.9-0.1,1.4"/>
			<path vector-effect="non-scaling-stroke" class="st1" d="M3.9,18.5"/>
			<path vector-effect="non-scaling-stroke" class="st1" d="M5.4,17.1c-0.2,0.1-0.4,0.4-0.7,0.7"/>
			<path vector-effect="non-scaling-stroke" class="st1" d="M11.6,12.1c0-1.6-1.3-2.9-2.9-2.9s-2.9,1.3-2.9,2.9S7.1,15,8.7,15
				S11.6,13.7,11.6,12.1"/>
			<path vector-effect="non-scaling-stroke" class="st1" d="M19.4,11.3c-0.4-1.5-2-2.5-3.6-2.1c-1.6,0.4-2.5,2-2.1,3.5
				c0.4,1.5,2,2.5,3.6,2.1C18.9,14.5,19.8,12.9,19.4,11.3"/>
			<path vector-effect="non-scaling-stroke" class="st1" d="M10.3,12.1c0-0.9-0.7-1.6-1.6-1.6c-0.9,0-1.6,0.7-1.6,1.6
				c0,0.9,0.7,1.6,1.6,1.6C9.6,13.7,10.3,13,10.3,12.1"/>
			<path vector-effect="non-scaling-stroke" class="st1" d="M18.2,12.1c0-0.9-0.7-1.6-1.6-1.6c-0.9,0-1.6,0.7-1.6,1.6
				c0,0.9,0.7,1.6,1.6,1.6C17.5,13.7,18.2,13,18.2,12.1"/>
			<path vector-effect="non-scaling-stroke" class="st1" d="M8.9,11.2c-0.2,0.2-0.2,0.5,0,0.8c0.2,0.2,0.6,0.3,0.8,0.1
				c0.2-0.2,0.2-0.5,0-0.8C9.5,11,9.1,11,8.9,11.2"/>
			<path vector-effect="non-scaling-stroke" class="st1" d="M16.7,11.3c-0.1,0.2,0,0.6,0.2,0.7c0.3,0.2,0.6,0.1,0.8-0.2
				c0.1-0.2,0-0.6-0.2-0.7C17.2,10.9,16.8,11,16.7,11.3"/>
			<path vector-effect="non-scaling-stroke" class="st1" d="M13.5,14.9c-0.2,0.6-0.5,1.1-0.9,1.6c0,0-0.1,0-0.1,0l-0.8-1.7"/>
			<path vector-effect="non-scaling-stroke" class="st1" d="M14.7,33.5l-0.3,0.1c0,0,0,0,0,0c0,0,0,0,0,0"/>
			<path vector-effect="non-scaling-stroke" class="st1" d="M14.3,33.6L14.3,33.6C14.2,33.6,14.2,33.6,14.3,33.6
				c-1.7,0.5-3.3,0.5-5,0.1c0,0,0,0,0,0c0,0,0,0,0,0"/>
		</g>
		<path class="st0" d="M20.2,20c0.5-1.3,0.6-2.6,0.3-3.9c0-0.1,0-0.3,0-0.4c0.2-0.6,0.4-1.2,0.5-1.7c0.4-1.9-0.1-3.5-1.5-5
			c0,0,0,0,0-0.1c0.6-0.4,1.1-0.9,1.6-1.6c0.4-0.6,0.5-1.2,0.5-1.9c-0.5,0.9-1.2,1.6-2.1,1.9c-0.5,0.2-1,0.3-1.5,0.4
			C17.3,7.9,16.6,8,16,8.2c-0.5,0.1-0.9,0.3-1.4,0.6c-0.2,0.1-0.3,0.2-0.5,0.4L14,9.2c-0.3,0.3-0.5,0.6-0.7,1
			c-0.2,0.3-0.4,0.7-0.5,1.1l-0.1,0.4c0,0-0.1,0-0.1,0c-0.1-0.3-0.2-0.6-0.3-0.9C12,9.5,10.8,8.6,9.5,8.2C8.8,8,8,7.9,7.2,7.8
			C6.7,7.8,6.3,7.7,5.9,7.6c-1.1-0.3-1.9-1-2.4-2.1c0.1,1.3,0.6,2.4,1.6,3.1C5.4,8.8,5.6,8.9,5.7,9c0,0,0,0,0,0.1
			c-0.9,0.9-1.6,2.1-1.6,3.4c-0.1,1.2,0.2,2.3,0.7,3.3c0,0.1,0,0.2,0,0.3c0,0-1,1.4-1.5,3.5c0,0,0.8-1.2,0.8-1.2
			c-1,1.3-2,3.1-2.1,5.7c0,0-0.1,2.9,0.4,5.3s0.8,4.2,1.4,5.9c0.1,0.3,0.1,0.2,0.2,0.2c1.5-1.2,2.3-1.7,4.1-3.2s3.9-1.3,5.7-2.4
			c1.5-0.9,2.6-2.4,3.8-3.6 M15.8,9.3c1.6-0.4,3.2,0.5,3.6,2.1c0.4,1.5-0.6,3.1-2.1,3.5c-1.6,0.4-3.2-0.5-3.6-2.1
			C13.3,11.3,14.3,9.7,15.8,9.3z M8.7,9.2c1.6,0,2.9,1.3,2.9,2.9c0,1.6-1.3,2.9-2.9,2.9c-1.6,0-2.9-1.3-2.9-2.9
			C5.8,10.5,7.1,9.2,8.7,9.2z M11.4,30.2c-3,0-5.9-2.3-5.8-6c0.2-3.7,2.8-5.6,5.9-5.5c2.8,0.1,5.5,2.1,5.6,5.5
			C17.2,27.9,14.4,30.2,11.4,30.2z"/>
		<path class="st2" d="M15.5,6.9c-1.9-0.6-3.8-0.6-5.8,0L8.9,7.2C8,7,7.1,6.8,6.1,6.6C5.5,6.4,4.9,6.2,4.5,5.8
			c-0.3-0.3-0.6-0.6-0.8-1h0C3.5,5.1,3.5,5.3,3.5,5.5c0.5,1.1,1.3,1.8,2.4,2.1c0.4,0.1,0.8,0.2,1.2,0.2C8,7.9,8.8,8,9.5,8.2
			c1.2,0.3,2.3,1.2,2.7,2.3l0.4,1c0,0,0,0.1,0,0.1c0,0,0.1,0,0.1,0l0,0c0.2-0.5,0.4-1.1,0.6-1.5c0.2-0.4,0.4-0.6,0.7-0.9
			c0.2-0.2,0.5-0.4,0.7-0.5c0.4-0.3,0.9-0.4,1.4-0.6c0.6-0.2,1.3-0.3,2.1-0.3c0.5,0,1-0.2,1.5-0.4c0.9-0.4,1.6-1,2.1-1.9
			c0.1-0.2,0.1-0.4,0-0.6c0,0-0.1-0.1-0.1,0c-0.5,0.7-1.1,1.2-1.9,1.5C19,6.6,18.2,6.8,17.4,7c-0.2,0-0.5,0.1-1,0.3c0,0,0,0,0,0
			L15.5,6.9C15.5,6.9,15.5,6.9,15.5,6.9"/>
		<path class="st3" d="M11.6,12.1c0,1.6-1.3,2.9-2.9,2.9s-2.9-1.3-2.9-2.9s1.3-2.9,2.9-2.9S11.6,10.5,11.6,12.1z M10.3,12.1
			c0-0.9-0.7-1.6-1.6-1.6c-0.9,0-1.6,0.7-1.6,1.6c0,0.9,0.7,1.6,1.6,1.6C9.6,13.7,10.3,13,10.3,12.1z"/>
		<path class="st3" d="M19.4,11.3c0.4,1.5-0.6,3.1-2.1,3.5c-1.6,0.4-3.2-0.5-3.6-2.1c-0.4-1.5,0.6-3.1,2.1-3.5
			C17.4,8.9,19,9.8,19.4,11.3z M18.2,12.1c0-0.9-0.7-1.6-1.6-1.6c-0.9,0-1.6,0.7-1.6,1.6c0,0.9,0.7,1.6,1.6,1.6
			C17.5,13.7,18.2,13,18.2,12.1z"/>
		<path class="st4" d="M10.3,12.1c0,0.9-0.7,1.6-1.6,1.6C7.8,13.7,7,13,7,12.1c0-0.9,0.7-1.6,1.6-1.6C9.6,10.5,10.3,11.2,10.3,12.1z
			 M8.9,11.2c-0.2,0.2-0.2,0.5,0,0.8c0.2,0.2,0.6,0.3,0.8,0.1c0.2-0.2,0.2-0.5,0-0.8C9.5,11,9.1,11,8.9,11.2z"/>
		<path class="st4" d="M18.2,12.1c0,0.9-0.7,1.6-1.6,1.6c-0.9,0-1.6-0.7-1.6-1.6c0-0.9,0.7-1.6,1.6-1.6
			C17.5,10.4,18.2,11.2,18.2,12.1z M16.7,11.3c-0.1,0.2,0,0.6,0.2,0.7c0.3,0.2,0.6,0.1,0.8-0.2c0.1-0.2,0-0.6-0.2-0.7
			C17.2,10.9,16.8,11,16.7,11.3z"/>
		<path class="st3" d="M8.9,11.2C9.1,11,9.5,11,9.7,11.2c0.2,0.2,0.2,0.6,0,0.8c-0.2,0.2-0.6,0.2-0.8-0.1
			C8.7,11.7,8.7,11.3,8.9,11.2z"/>
		<path class="st3" d="M16.7,11.3c0.1-0.2,0.5-0.3,0.8-0.2c0.3,0.2,0.4,0.5,0.2,0.7c-0.1,0.2-0.5,0.3-0.8,0.2
			C16.7,11.8,16.6,11.5,16.7,11.3z"/>
		<path class="st2" d="M11.4,15c-5.2,0-9.4,4.2-9.4,9.4s4.2,9.4,9.4,9.4s9.4-4.2,9.4-9.4S16.6,15,11.4,15z M11.4,29.7
			c-2.9,0-5.3-2.4-5.3-5.3s2.4-5.3,5.3-5.3c2.9,0,5.3,2.4,5.3,5.3S14.3,29.7,11.4,29.7z"/>
		<path class="st3" d="M13.5,14.9c-0.2,0.6-0.5,1.1-0.9,1.6c0,0-0.1,0-0.1,0l-0.8-1.7c-0.2-0.5-0.1-1,0.1-1.4
			c0.5-0.9,1.5-0.6,1.8,0.2C13.7,14,13.7,14.5,13.5,14.9z"/>
	</g>
</g>
</svg>
