<?xml version="1.0" encoding="utf-8"?>
<!-- Generator: Adobe Illustrator 29.5.1, SVG Export Plug-In . SVG Version: 9.03 Build 0)  -->
<svg version="1.1" id="Layer_1" xmlns="http://www.w3.org/2000/svg" xmlns:xlink="http://www.w3.org/1999/xlink" x="0px" y="0px"
	 viewBox="0 0 320 100" style="enable-background:new 0 0 320 100;" xml:space="preserve">
<style type="text/css">
	.st0{fill:#128D7B;}
	.st1{fill:#163547;}
	.st2{fill:none;}
	.st3{fill:#DEE6E6;}
	.st4{fill:#194049;}
</style>
<g>
	<g>
		<path class="st0" d="M94.3,48.8h9.3c0.5,0,0.9,0.2,1.1,0.6l9.9,15.5c0.4,0.6,1.3,0.3,1.3-0.4V50.1c0-0.8,0.6-1.4,1.4-1.4h8.4
			c0.8,0,1.4,0.6,1.4,1.4v36.3c0,0.8-0.6,1.4-1.4,1.4h-8.5c-0.5,0-0.9-0.2-1.1-0.6L105.2,70c-0.3-0.5-1.1-0.3-1.1,0.3v16.1
			c0,0.8-0.6,1.4-1.4,1.4h-8.4c-0.8,0-1.4-0.6-1.4-1.4V50.1C93,49.4,93.6,48.8,94.3,48.8z"/>
		<path class="st1" d="M146.4,72.9l-4.4,5.2c-0.1,0.1-0.2,0.3-0.2,0.5V87c0,0.4-0.3,0.8-0.8,0.8h-9.2c-0.4,0-0.8-0.3-0.8-0.8V31.5
			c0-0.4,0.3-0.8,0.8-0.8h9.2c0.4,0,0.8,0.3,0.8,0.8v32.4c0,0.7,0.9,1,1.4,0.5L156,48.9c0.1-0.2,0.4-0.3,0.6-0.3H167
			c0.7,0,1,0.8,0.6,1.3l-12.8,15.2c-0.2,0.3-0.2,0.6,0,0.9l13.9,20.5c0.3,0.5,0,1.2-0.6,1.2h-9.9c-0.3,0-0.5-0.1-0.6-0.3L147.6,73
			C147.3,72.5,146.7,72.5,146.4,72.9z"/>
		<path class="st1" d="M172.1,48.8h7.8c0.4,0,0.8,0.3,0.8,0.8v28.5c0,0.4,0.3,0.8,0.8,0.8h11.2c0.4,0,0.8,0.3,0.8,0.8V87
			c0,0.4-0.3,0.8-0.8,0.8h-20.5c-0.4,0-0.8-0.3-0.8-0.8V49.5C171.3,49.1,171.6,48.8,172.1,48.8z"/>
		<path class="st1" d="M204.9,49.5V87c0,0.4-0.3,0.8-0.8,0.8h-7.9c-0.4,0-0.8-0.3-0.8-0.8V49.5c0-0.4,0.3-0.8,0.8-0.8h7.9
			C204.5,48.8,204.9,49.1,204.9,49.5z"/>
		<path class="st1" d="M208.9,48.7h8.7c0.3,0,0.5,0.1,0.7,0.4l12,18.8c0.6,0.9,1.9,0.5,1.9-0.6V49.5c0-0.4,0.3-0.8,0.8-0.8h7.7
			c0.4,0,0.8,0.3,0.8,0.8V87c0,0.4-0.3,0.8-0.8,0.8h-8c-0.3,0-0.5-0.1-0.7-0.4l-12.6-20c-0.5-0.9-1.9-0.5-1.9,0.5v19
			c0,0.4-0.3,0.8-0.8,0.8h-7.8c-0.4,0-0.8-0.3-0.8-0.8V49.5C208.1,49.1,208.4,48.7,208.9,48.7z"/>
		<path class="st1" d="M254.3,49.5V87c0,0.4-0.3,0.8-0.8,0.8h-7.8c-0.4,0-0.8-0.3-0.8-0.8V49.5c0-0.4,0.3-0.8,0.8-0.8h7.8
			C253.9,48.8,254.3,49.1,254.3,49.5z"/>
		<path class="st1" d="M257.1,68.2c0-10.8,8.6-19.5,19.4-19.5c8.3,0,14.7,4.6,17.8,11.2c0.2,0.4,0,0.8-0.4,1l-7.8,3.3
			c-0.4,0.2-0.8,0-0.9-0.4c-1.7-3.5-5.5-5.8-9.8-5.3c-4.8,0.6-8.3,4.7-8.4,9.5c-0.1,5.5,4.1,9.9,9.6,9.9c3.7,0,7-2.2,8.6-5.3
			c0.2-0.4,0.6-0.5,1-0.4l7.8,3.3c0.4,0.2,0.5,0.6,0.4,1c-3.1,6.6-9.5,11.2-17.8,11.2C265.8,87.7,257.1,79,257.1,68.2z"/>
	</g>
	<g>
		<g>
			<path vector-effect="non-scaling-stroke" class="st2" d="M34.8,1c-0.3,0.9-0.4,1.6-0.2,2.2"/>
			<path vector-effect="non-scaling-stroke" class="st2" d="M34.6,3.2c0.2,4.2,1.9,7.5,5.2,9.9c0.7,0.5,1.3,0.9,1.7,1.1
				c0.1,0,0.1,0.1,0,0.2c-2.9,2.9-5,6.7-5.1,10.8c-0.2,3.7,0.7,7.2,2.2,10.5c0.1,0.3,0.1,0.6,0,0.9l-2.7,7.6"/>
			<path vector-effect="non-scaling-stroke" class="st2" d="M35.8,44.2c-0.5,0.8-1,1.6-1.5,2.4c-3.2,5-4.8,10.6-4.7,16.5
				c0.1,7.3,3.2,14.8,8.2,20.2c3.9,4.3,8.9,7.2,14.7,8.8c0.1,0,0.2,0.1,0.3,0.2"/>
			<path vector-effect="non-scaling-stroke" class="st2" d="M87.1,48.9c1.7-4.1,2.1-8.2,1-12.4c-0.1-0.4-0.1-0.8,0-1.2
				c0.6-1.8,1.3-3.6,1.6-5.3c1.2-6-0.3-11.2-4.6-15.6c-0.1-0.1,0-0.2,0-0.2c2-1.3,3.6-2.9,4.9-4.9c1.1-1.8,1.7-3.8,1.7-6"/>
			<path vector-effect="non-scaling-stroke" class="st2" d="M91.8,3.3c0.2-0.5,0.2-1.2,0-2c0-0.2-0.2-0.2-0.3-0.1
				c-1.4,2.1-3.4,3.6-5.8,4.6c-2.3,0.9-4.8,1.6-7.5,2c-0.5,0.1-1.5,0.4-3,0.9"/>
			<path vector-effect="non-scaling-stroke" class="st2" d="M75.1,8.7l-2.8-1.1"/>
			<path vector-effect="non-scaling-stroke" class="st2" d="M72.4,7.6c-6-1.9-12.1-1.9-18.1-0.1"/>
			<path vector-effect="non-scaling-stroke" class="st2" d="M54.2,7.5l-2.6,1"/>
			<path vector-effect="non-scaling-stroke" class="st2" d="M51.6,8.6c-2.8-0.7-5.8-1.4-8.9-2.1c-2-0.5-3.7-1.3-5.3-2.4
				c-1.1-0.8-1.9-1.8-2.6-3.1"/>
			<path vector-effect="non-scaling-stroke" class="st2" d="M51.6,8.6"/>
			<path vector-effect="non-scaling-stroke" class="st2" d="M72.4,7.6"/>
			<path vector-effect="non-scaling-stroke" class="st2" d="M63.6,21.6l-0.2,1.2c0,0.1-0.2,0.1-0.2,0c-0.3-1.1-0.6-2.1-1-3
				c-1.5-3.8-4.6-6.9-8.7-8c-2.5-0.7-5-0.9-7.5-1.2c-1.5-0.2-2.8-0.5-3.9-0.8c-3.3-1-5.8-3.2-7.6-6.6"/>
			<path vector-effect="non-scaling-stroke" class="st2" d="M91.8,3.3c-1.5,2.9-3.6,4.9-6.6,6.1c-1.6,0.6-3.1,1-4.7,1.1
				c-2.5,0.2-4.7,0.6-6.6,1.1c-1.5,0.4-3,1-4.3,1.8c-0.6,0.3-1.1,0.9-1.7,1.3"/>
			<path vector-effect="non-scaling-stroke" class="st2" d="M63.6,21.6c0.6-1.2,1.2-2.6,1.8-3.6c0.8-1.3,1.6-2.1,2.5-3.2"/>
			<path vector-effect="non-scaling-stroke" class="st2" d="M66,32.9c0.6-1.4,0.6-2.8,0.2-4.1c-0.9-2.7-4.2-3.7-5.7-0.8
				c-0.7,1.4-0.8,2.9-0.3,4.4"/>
			<path vector-effect="non-scaling-stroke" class="st2" d="M35.8,44.2"/>
			<path vector-effect="non-scaling-stroke" class="st2" d="M40.4,39.7c-0.5,0.4-1.3,1.2-2.3,2.2"/>
			<path vector-effect="non-scaling-stroke" class="st2" d="M60,24c0-5.1-4.1-9.2-9.2-9.2s-9.2,4.1-9.2,9.2s4.1,9.2,9.2,9.2
				S60,29.1,60,24"/>
			<path vector-effect="non-scaling-stroke" class="st2" d="M84.7,21.6c-1.3-4.9-6.3-7.8-11.3-6.5c-5,1.3-8,6.3-6.7,11.2
				C68,31.2,73,34.1,78,32.8C82.9,31.5,85.9,26.5,84.7,21.6"/>
			<path vector-effect="non-scaling-stroke" class="st2" d="M55.9,24c0-2.9-2.3-5.2-5.2-5.2s-5.2,2.3-5.2,5.2s2.3,5.2,5.2,5.2
				S55.9,26.8,55.9,24"/>
			<path vector-effect="non-scaling-stroke" class="st2" d="M80.8,24c0-2.9-2.3-5.2-5.2-5.2c-2.9,0-5.2,2.3-5.2,5.2s2.3,5.2,5.2,5.2
				C78.5,29.1,80.8,26.8,80.8,24"/>
			<path vector-effect="non-scaling-stroke" class="st2" d="M51.6,21c-0.7,0.6-0.7,1.7,0,2.4c0.7,0.7,1.8,0.9,2.4,0.2
				c0.7-0.6,0.7-1.7,0-2.4C53.3,20.5,52.3,20.4,51.6,21"/>
			<path vector-effect="non-scaling-stroke" class="st2" d="M76.1,21.4c-0.5,0.8-0.1,1.8,0.7,2.3c0.9,0.5,1.9,0.3,2.4-0.5
				c0.5-0.8,0.1-1.8-0.7-2.3C77.6,20.4,76.5,20.6,76.1,21.4"/>
			<path vector-effect="non-scaling-stroke" class="st2" d="M66,32.9c-0.8,1.8-1.7,3.5-2.8,5c-0.1,0.1-0.3,0.1-0.4,0l-2.5-5.4"/>
			<path vector-effect="non-scaling-stroke" class="st2" d="M69.6,91.5l-1.1,0.3c0,0,0,0,0,0c0,0,0,0.1,0,0.1"/>
			<path vector-effect="non-scaling-stroke" class="st2" d="M68.5,91.8L68.5,91.8c-0.1,0-0.2,0.1-0.3,0.1
				c-5.1,1.4-10.2,1.5-15.3,0.3c-0.1,0-0.1,0-0.1,0c0,0,0,0.1,0,0.1"/>
		</g>
		<path class="st1" d="M87.1,48.8c1.7-4.1,2-8.2,1-12.3c-0.1-0.4-0.1-0.8,0-1.2c0.6-1.8,1.3-3.6,1.6-5.3c1.2-6-0.3-11.2-4.6-15.6
			c-0.1-0.1,0-0.2,0-0.2c2-1.3,3.6-2.9,4.9-4.9c1.1-1.8,1.7-3.8,1.7-6c-1.5,2.9-3.6,4.9-6.6,6.1c-1.6,0.6-3.1,1-4.7,1.1
			c-2.5,0.2-4.7,0.6-6.6,1.1c-1.5,0.4-3,1-4.3,1.8c-0.6,0.3-1.1,0.6-1.7,1.1l-0.2,0.2c-0.8,1.1-1.5,1.8-2.2,3.1
			c-0.6,1.1-1.2,2.3-1.6,3.5l-0.4,1.3c0,0.1-0.2,0.1-0.2,0c-0.3-1.1-0.7-2-1-3c-1.1-3.9-4.6-6.9-8.7-8c-2.5-0.7-5-0.9-7.5-1.2
			c-1.5-0.2-2.8-0.5-3.9-0.8c-3.3-1-5.8-3.2-7.6-6.6c0.2,4.2,1.9,7.5,5.2,9.9c0.7,0.5,1.3,0.9,1.7,1.1c0.1,0,0.1,0.1,0,0.2
			c-2.9,2.9-5,6.7-5.1,10.8c-0.2,3.7,0.7,7.2,2.2,10.5c0.1,0.3,0.1,0.6,0,0.9c0,0-3.2,4.3-4.6,11.1c0,0.1,2.6-3.8,2.5-3.7
			c-3.2,4.2-6.2,9.9-6.7,18c0,0-0.3,9.3,1.2,16.9c1.4,7.6,2.4,13.3,4.5,18.6c0.3,0.9,0.4,0.8,0.5,0.7c4.9-3.9,7.4-5.4,12.8-10
			s12.2-4,17.8-7.4c4.9-2.9,8.2-7.6,12-11.3 M73.4,15.1c5-1.3,10,1.6,11.3,6.5c1.3,4.9-1.7,9.9-6.7,11.2c-5,1.3-10-1.6-11.3-6.5
			C65.4,21.4,68.4,16.4,73.4,15.1z M50.9,14.8c5.1,0,9.2,4.1,9.2,9.2c0,5.1-4.1,9.2-9.2,9.2c-5.1,0-9.2-4.1-9.2-9.2
			C41.7,18.9,45.8,14.8,50.9,14.8z M59.3,81c-9.6,0.1-18.7-7.1-18.2-18.8c0.5-11.6,8.9-17.7,18.7-17.5c8.8,0.2,17.3,6.6,17.6,17.5
			C77.7,73.8,69,80.9,59.3,81z"/>
		<path class="st0" d="M72.4,7.6c-6-1.9-12.1-1.9-18.1-0.1l-2.6,1c-2.8-0.7-5.8-1.4-8.9-2.1c-2-0.5-3.7-1.3-5.3-2.4
			c-1.1-0.8-1.9-1.8-2.6-3.1h-0.1c-0.3,0.9-0.4,1.6-0.2,2.2c1.7,3.4,4.2,5.6,7.6,6.6c1.1,0.3,2.4,0.6,3.9,0.8
			c2.6,0.3,5.1,0.5,7.5,1.2c3.8,1,7.2,3.7,8.4,7.3l1.2,3.3c0,0.1,0.1,0.3,0.1,0.4c0,0.1,0.2,0.1,0.2,0l0-0.1c0.6-1.7,1.4-3.6,2-4.6
			c0.8-1.3,1.2-1.9,2.1-2.9c0.7-0.6,1.5-1.3,2.1-1.6c1.4-0.8,2.8-1.4,4.3-1.8c1.9-0.5,4.1-0.9,6.6-1.1c1.6-0.1,3.1-0.5,4.7-1.1
			c2.9-1.1,5.1-3.2,6.6-6.1c0.2-0.5,0.2-1.2,0-2c0-0.2-0.2-0.2-0.3-0.1c-1.4,2.1-3.4,3.6-5.8,4.6c-2.3,0.9-4.8,1.6-7.5,2
			c-0.5,0.1-1.5,0.4-3,0.9c0,0,0,0,0,0L72.4,7.6C72.4,7.7,72.4,7.7,72.4,7.6"/>
		<path class="st3" d="M60,24c0,5.1-4.1,9.2-9.2,9.2s-9.2-4.1-9.2-9.2s4.1-9.2,9.2-9.2S60,18.9,60,24z M55.9,24
			c0-2.9-2.3-5.2-5.2-5.2s-5.2,2.3-5.2,5.2s2.3,5.2,5.2,5.2S55.9,26.8,55.9,24z"/>
		<path class="st3" d="M84.7,21.6c1.3,4.9-1.7,9.9-6.7,11.2c-5,1.3-10-1.6-11.3-6.5c-1.3-4.9,1.7-9.9,6.7-11.2
			C78.4,13.8,83.4,16.7,84.7,21.6z M80.8,24c0-2.9-2.3-5.2-5.2-5.2c-2.9,0-5.2,2.3-5.2,5.2s2.3,5.2,5.2,5.2
			C78.5,29.1,80.8,26.8,80.8,24z"/>
		<path class="st4" d="M55.9,24c0,2.9-2.3,5.2-5.2,5.2s-5.2-2.3-5.2-5.2s2.3-5.2,5.2-5.2S55.9,21.1,55.9,24z M51.6,21
			c-0.7,0.6-0.7,1.7,0,2.4c0.7,0.7,1.8,0.9,2.4,0.2c0.7-0.6,0.7-1.7,0-2.4C53.3,20.5,52.3,20.4,51.6,21z"/>
		<path class="st4" d="M80.8,24c0,2.9-2.3,5.2-5.2,5.2c-2.9,0-5.2-2.3-5.2-5.2s2.3-5.2,5.2-5.2C78.5,18.8,80.8,21.1,80.8,24z
			 M76.1,21.4c-0.5,0.8-0.1,1.8,0.7,2.3c0.9,0.5,1.9,0.3,2.4-0.5c0.5-0.8,0.1-1.8-0.7-2.3C77.6,20.4,76.5,20.6,76.1,21.4z"/>
		<path class="st3" d="M51.6,21c0.7-0.6,1.8-0.5,2.4,0.2c0.7,0.7,0.7,1.8,0,2.4c-0.7,0.6-1.8,0.5-2.4-0.2
			C50.9,22.7,50.9,21.6,51.6,21z"/>
		<path class="st3" d="M76.1,21.4c0.5-0.8,1.5-1,2.4-0.5c0.9,0.5,1.2,1.6,0.7,2.3c-0.5,0.8-1.5,1-2.4,0.5
			C76,23.2,75.6,22.1,76.1,21.4z"/>
		<path class="st0" d="M59.3,33.1c-16.4,0-29.8,13.3-29.8,29.8s13.3,29.8,29.8,29.8s29.8-13.3,29.8-29.8S75.7,33.1,59.3,33.1z
			 M59.3,79.4c-9.2,0-16.6-7.4-16.6-16.6s7.4-16.6,16.6-16.6c9.2,0,16.6,7.4,16.6,16.6S68.5,79.4,59.3,79.4z"/>
		<path class="st3" d="M66,32.9c-0.8,1.8-1.7,3.5-2.8,5c-0.1,0.1-0.3,0.1-0.4,0l-2.5-5.4c-0.5-1.6-0.4-3,0.3-4.4
			c1.5-2.9,4.9-2,5.7,0.8C66.6,30.1,66.5,31.4,66,32.9z"/>
	</g>
</g>
</svg>
